<svg width="56" height="56" viewBox="0 0 56 56" fill="none" xmlns="http://www.w3.org/2000/svg">
<path fill-rule="evenodd" clip-rule="evenodd" d="M28 0C43.464 0 56 12.536 56 28C56 43.464 43.464 56 28 56C12.536 56 0 43.464 0 28C0 12.536 12.536 0 28 0ZM23.1998 13.8272C21.6654 13.8272 20.442 14.8752 20.2212 16.3799L17.876 32.6607C17.865 32.7356 17.8359 32.9344 17.5568 32.9467C17.2871 32.958 17.2343 32.7754 17.2152 32.697L16.458 29.3574C16.4568 29.3522 16.4557 29.3472 16.4544 29.342C15.9623 27.2861 14.1169 25.7938 12.0664 25.7938C11.3206 25.7938 10.716 26.3925 10.716 27.1309C10.716 27.8694 11.3206 28.468 12.0664 28.468C12.8643 28.468 13.6192 29.1054 13.8249 29.9519L14.5821 33.291C14.5832 33.2962 14.5843 33.3012 14.5856 33.3064C14.9269 34.7323 16.1976 35.6829 17.6762 35.6182C19.1547 35.5535 20.3359 34.4954 20.5491 33.0418L22.8943 16.761C22.9066 16.6767 22.9323 16.5013 23.1972 16.5013L23.2863 16.509C23.469 16.5439 23.4899 16.6875 23.5004 16.7605L26.7933 39.5725C27.0164 41.1101 28.2566 42.1728 29.8183 42.1728L29.8696 42.1725C31.4554 42.1489 32.6874 41.0426 32.8658 39.4813L33.3252 35.4365C33.4086 34.7026 32.8754 34.0408 32.1343 33.9583C31.3933 33.8756 30.7249 34.4037 30.6415 35.1376L30.1822 39.1816C30.1724 39.267 30.1465 39.4939 29.8291 39.4987C29.5144 39.5051 29.4788 39.2773 29.4666 39.1931L26.1738 16.3812C25.9558 14.8786 24.7329 13.8284 23.1998 13.8272ZM34.4015 22.9856C33.0027 23.0219 31.9158 24.0089 31.7585 25.3858L31.1867 30.3901C31.1029 31.1238 31.6356 31.786 32.3767 31.869C33.1179 31.9521 33.7864 31.4245 33.8703 30.6907L34.4421 25.6864C34.4433 25.6763 34.4446 25.6681 34.446 25.6617C34.462 25.6582 34.4832 25.6576 34.4993 25.6603C34.5008 25.6659 34.5024 25.6728 34.5038 25.6812L35.5636 32.0821C35.7923 33.4413 36.9232 34.4283 38.3137 34.4824C38.3536 34.4839 38.3933 34.4847 38.4328 34.4847C39.7725 34.4847 40.9193 33.602 41.2454 32.3031L41.2494 32.2873L41.7262 30.2839C41.9895 29.2481 42.9373 28.468 43.9336 28.468C44.6794 28.468 45.284 27.8694 45.284 27.1309C45.284 26.3925 44.6794 25.7938 43.9336 25.7938C41.6952 25.7938 39.6638 27.4138 39.1035 29.6457L39.0995 29.6616L38.6227 31.6655C38.6066 31.7285 38.578 31.8161 38.4196 31.8104C38.2545 31.8039 38.2382 31.7068 38.2279 31.646L37.1682 25.2451C36.9381 23.8784 35.801 22.9485 34.4015 22.9856Z" fill="#54E6AF"/>
</svg>
